<svg width="174" height="56" viewBox="0 0 174 56" fill="none" xmlns="http://www.w3.org/2000/svg">
<g id="Group 427321133">
<path id="Vector" d="M23.6572 27.4096C23.6572 24.7383 23.6572 22.0669 23.6572 19.3956C23.6572 18.9009 23.4584 18.703 22.9614 18.604C22.2656 18.5051 21.6692 18.604 21.2716 19.2966C21.0728 19.5934 20.874 19.6924 20.4764 19.6924C17.2956 19.6924 14.2142 19.6924 11.0334 19.6924C9.64179 19.6924 8.74719 20.286 8.15079 21.3743C7.45499 22.4627 7.25619 23.7489 7.25619 25.0351C7.25619 25.5298 7.15679 25.6287 6.65979 25.6287C4.57239 25.6287 2.5844 25.6287 0.496999 25.6287C0.0993999 25.6287 0 25.5298 0 25.134C0.496999 19.7913 2.3856 14.9433 5.76519 10.7879C10.437 4.95044 16.5998 1.48757 24.0548 0.300301C38.5672 -1.87636 52.5825 8.01756 55.4651 22.2648C55.6639 23.1552 55.7633 24.1446 55.9621 25.134C56.0615 25.5298 55.9621 25.7277 55.4651 25.7277C53.3777 25.7277 51.2903 25.7277 49.203 25.7277C48.8054 25.7277 48.7059 25.6287 48.7059 25.233C48.7059 24.0457 48.5071 22.8584 48.1096 21.7701C47.8114 21.0775 47.5131 20.4839 47.0161 19.9892C46.5191 19.4945 45.9228 19.2966 45.227 19.2966C41.9468 19.2966 38.766 19.2966 35.4858 19.2966C35.1876 19.2966 34.8894 19.1977 34.6906 18.9009C34.3924 18.4062 33.9948 18.1094 33.3984 18.1094C32.5038 18.1094 32.305 18.3072 32.305 19.0987C32.305 20.0881 32.305 21.0775 32.305 22.1659C32.305 22.5616 32.2056 22.6606 31.808 22.6606C30.1182 22.6606 28.4284 22.6606 26.7386 22.6606C25.9434 22.6606 25.4464 23.1552 25.2476 23.8478C25.1482 24.4415 25.5458 25.134 26.1422 25.3319C26.341 25.4308 26.6392 25.4308 26.838 25.4308C28.4284 25.4308 30.0188 25.4308 31.6092 25.4308C32.1062 25.4308 32.2056 25.6287 32.2056 26.0245C32.2056 27.1128 32.2056 28.3001 32.2056 29.3884C32.2056 29.8831 32.1062 29.982 31.6092 29.982C30.0188 29.982 28.4284 29.982 26.7386 29.982C25.7446 29.982 25.1482 30.4767 25.1482 31.3672C25.1482 32.1587 25.7446 32.7523 26.7386 32.7523C28.329 32.7523 29.9194 32.7523 31.6092 32.7523C32.1062 32.7523 32.2056 32.8513 32.2056 33.346C32.2056 34.3354 32.2056 35.4237 32.2056 36.4131C32.2056 37.0067 32.5038 37.3035 32.9014 37.6004C33.3984 37.8972 33.8954 37.6993 34.1936 37.4025C34.6906 36.8089 35.287 36.8089 35.9828 36.8089C39.1636 36.8089 42.245 36.8089 45.3264 36.8089C46.4198 36.8089 47.0161 36.3142 47.5131 35.5226C48.3083 34.1375 48.5071 32.6534 48.6065 31.0704C48.6065 30.4767 48.8053 30.2789 49.4017 30.2789C51.3897 30.2789 53.2783 30.2789 55.2663 30.2789C55.7633 30.2789 55.9621 30.3778 55.9621 30.9714C55.0675 37.9961 52.0855 43.9325 46.9168 48.7805C42.5432 52.7381 37.3744 55.1126 31.5098 55.8052C22.1662 56.7946 14.1148 54.0243 7.65379 47.2964C3.3796 42.9431 0.993999 37.6004 0.2982 31.4661C0.0994001 29.8831 0.0993997 29.8831 1.6898 29.8831C3.3796 29.8831 4.96999 29.8831 6.65979 29.8831C7.55439 29.8831 7.45499 29.7842 7.55439 30.6746C7.65379 31.8619 7.85259 33.1481 8.34959 34.2364C8.84659 35.3248 9.64179 35.9184 10.934 35.9184C14.1148 35.8195 17.395 35.9184 20.5758 35.9184C21.0728 35.9184 21.371 36.0173 21.7686 36.3142C22.365 36.8089 22.9614 36.9078 23.4584 36.512C23.7566 36.2152 23.9554 35.9184 23.9554 35.5226C23.6572 32.7523 23.6572 30.081 23.6572 27.4096Z" fill="#22A5D9"/>
<path id="Quixom_1_" d="M84.3781 36.5311C82.7633 36.4075 80.5275 36.0366 78.4158 35.7893V35.6657C82.5149 33.6875 84.0055 29.2365 84.0055 25.7746C84.0055 20.0873 80.6517 16.749 76.3042 16.749C71.0872 16.749 67.2366 21.5709 67.2366 27.6292C67.2366 30.5965 68.1061 32.822 69.3482 34.4293C70.7146 36.0366 72.702 36.9021 74.8136 37.0257C75.1863 37.0257 75.6831 37.1493 76.0558 37.273C78.6643 37.8912 81.397 38.633 84.0055 39.2512L84.3781 36.5311ZM69.3482 27.2583C69.3482 23.7964 71.0872 18.6036 76.0558 18.6036C78.7885 18.6036 81.7696 21.0764 81.7696 25.8983C81.7696 31.0911 78.9127 34.8002 75.1863 34.8002C71.7083 34.9238 69.3482 31.462 69.3482 27.2583ZM89.7193 21.8182C89.7193 19.3454 89.8435 17.9854 89.8435 17.2436H87.6077C87.6077 17.8618 87.6077 19.84 87.6077 21.2V22.6837C87.6077 29.3601 87.9803 31.5856 89.0982 33.5638C90.092 35.6657 92.2036 36.9021 94.4395 36.9021C96.6753 37.0257 98.7869 35.913 99.9049 33.9347C101.644 31.3383 101.892 28.0001 101.892 22.6837V21.4473C101.892 19.2218 101.892 17.4909 101.892 16.8727H99.6564C99.6564 17.8618 99.7807 19.4691 99.7807 21.4473V22.3127C99.7807 26.6401 99.7807 29.9783 98.6627 32.0802C97.9174 33.6875 96.4269 34.6766 94.6879 34.6766C92.9489 34.6766 91.3341 33.6875 90.713 31.9565C89.8435 30.102 89.5951 28.0001 89.5951 23.5491L89.7193 21.8182ZM109.718 25.1564C109.718 21.8182 109.842 17.6145 109.842 17.1199H107.482C107.482 17.7381 107.606 24.5382 107.606 25.0328V28.0001C107.606 28.7419 107.606 35.1711 107.482 36.4075H109.718C109.718 35.7893 109.594 30.8438 109.594 28.1237L109.718 25.1564ZM115.928 36.9021C116.177 36.4075 121.518 28.4947 121.767 28.1237C122.388 28.8656 127.232 36.0366 127.729 36.9021L129.344 35.0475C128.474 33.8111 123.878 27.3819 123.133 26.5164C123.63 25.651 128.226 19.84 129.095 18.9745L127.48 17.1199C126.859 18.109 122.76 23.92 122.015 24.9091C120.276 22.4364 117.419 18.109 116.922 17.1199L115.183 18.9745C116.053 20.2109 119.655 25.2801 120.649 26.6401C119.903 27.6292 114.935 34.5529 114.438 35.1711L115.928 36.9021ZM139.653 36.9021C146.237 36.9021 148.597 30.4729 148.597 26.1455C148.597 20.2109 145.243 16.749 140.896 16.749C135.306 16.749 131.704 21.6946 131.704 27.8765C131.828 32.5747 134.685 36.9021 139.653 36.9021ZM139.902 34.8002C136.3 34.8002 134.064 31.462 134.064 27.3819C134.064 22.6837 136.548 18.7272 140.647 18.7272C143.628 18.7272 146.361 21.3236 146.361 26.2692C146.361 31.5856 143.38 34.8002 139.902 34.8002ZM152.199 37.1493C152.447 36.0366 155.677 24.0437 156.174 22.3127C157.043 24.7855 159.9 31.462 161.267 34.5529C162.26 32.822 166.235 24.1673 167.105 22.56C167.477 23.5491 170.955 35.1711 171.576 37.1493L173.564 36.1602C172.57 33.3165 168.471 19.84 167.602 17.6145C167.105 18.48 162.385 28.4947 161.515 30.102C160.77 28.7419 156.547 18.48 155.801 16.749C155.677 17.3672 150.708 35.1711 150.336 36.4075L152.199 37.1493Z" fill="#808080"/>
</g>
</svg>
